<svg xmlns="http://www.w3.org/2000/svg" viewBox="0 0 402.24 299.23"><defs><style>.cls-1{fill:#fff;}</style></defs><g id="Camada_2" data-name="Camada 2"><g id="Camada_1-2" data-name="Camada 1"><path class="cls-1" d="M259.76,149.17l-.05-45.29,9.05,0H272l40.15,0,0,12.26-40.16.05,0,33h0v.06A19.85,19.85,0,0,0,291.86,169H292v0l102.47-.13V181l-103,.13v0a32,32,0,0,1-31.52-31.9v-.05Z"/><polygon class="cls-1" points="259.6 16.56 271.86 16.54 271.93 71.16 322.43 71.1 322.44 83.36 271.94 83.43 268.73 83.43 259.68 83.44 259.6 16.56"/><path class="cls-1" d="M234.83,213.31V200.94l-26.51,0h0a51.23,51.23,0,0,1-50.59-49.11h0c0-.25-.05-.49-.06-.74,0-.44,0-.88,0-1.32v-.05h0a38.29,38.29,0,0,1,2.52-14.52c3.12-10.12,21.15-25.91,28.71-33.22l-.14-.13.19.16a23,23,0,0,0-16.36-38.28V63.7l-15.23,0H145.05V76l.06,46h0a51.24,51.24,0,0,1-49.81,49.83l-72.87.1v12.41l73-.09h0a63.58,63.58,0,0,0,50.36-26.93,63.56,63.56,0,0,0,62.51,55.94v0ZM157.32,76l15.24,0V76a10.73,10.73,0,0,1,7.33,17.73l0,0L157.37,115Z"/><path class="cls-1" d="M292.05,212.74h-.13a63.55,63.55,0,0,1-63.64-63.48v0h0L228.05,0l12.26,0,.19,149.2h.1v0a51.25,51.25,0,0,0,51.31,51.18H292v0l80.08-.13v12.26l-80.06.13Z"/><path class="cls-1" d="M208.74,181.69A31.94,31.94,0,0,1,177,149.92h0c.14-15.21,10.74-19.7,18.57-27a119,119,0,0,0,9-9.53,44,44,0,0,0-32.86-70.55v-.13l-45.87.06.09,77.81h0v0a31.93,31.93,0,0,1-31.17,32h-.08l-9.12,0h-.06L0,152.68V140.42l93.78-.09h1.06a19.59,19.59,0,0,0,18.94-19.71h-.19l-.11-90.13h12.26l46.1-.06v.13A56.22,56.22,0,0,1,209.73,126l.18.12a45.71,45.71,0,0,1-4.6,4.51c-6.67,5.82-14.74,11-16.35,19.09h.1v.05a19.84,19.84,0,0,0,19.67,19.82h0l10.72,0v12.12l-10.72,0Z"/><path class="cls-1" d="M386.15,277.33h-9.94l4.07-18.42c.13-.67.33-1,.93-1s.74.33.87,1Zm16.09,20.23a3,3,0,0,1-.07-.33l-9.94-41.39c-1.54-6.41-6.41-7.41-11-7.41s-9.54,1-11.08,7.41l-9.94,41.39a3,3,0,0,1-.07.33,1,1,0,0,0,1.13,1.07h9.35a1.42,1.42,0,0,0,1.33-1.2l2.41-10.95H388l2.41,10.95a1.42,1.42,0,0,0,1.33,1.2h9.35A1,1,0,0,0,402.24,297.56Zm-48.06-.27v-47a1.23,1.23,0,0,0-1.27-1.27h-9a1.17,1.17,0,0,0-1.2,1.27v47a1.23,1.23,0,0,0,1.2,1.34h9A1.29,1.29,0,0,0,354.18,297.29Zm-31.51-32.37c0,4.54-2.2,6.34-9.21,6.34-.74,0-4-.07-4.74-.13V258.31c.8-.07,4.27-.2,5.21-.2,5.6,0,8.74,1.87,8.74,5.94Zm13,32.91a1.83,1.83,0,0,0-.2-.74l-10.08-18.82c4.87-1.94,8.61-6.28,8.61-13.35v-.87c0-11.82-8.75-15.62-20.09-15.62a105.2,105.2,0,0,0-13.56.87c-2.07.33-3,.93-3,3.2v44.79a1.34,1.34,0,0,0,1.34,1.34h8.67a1.34,1.34,0,0,0,1.34-1.34v-17c1.27,0,3.34.13,4.74.13l.73-.07,8.95,16.89c.33.67.6,1.34,1.33,1.34h10.22C335.42,298.63,335.69,298.29,335.69,297.83Zm-54.47-61.68c0-.27-.27-.47-.74-.47h-8.74c-.94,0-1.21.27-1.81,1l-6.2,7.81a1.1,1.1,0,0,0-.27.67c0,.26.2.46.6.46h7.14a1.8,1.8,0,0,0,1.6-.8l8.15-8.14A.8.8,0,0,0,281.22,236.15Zm-5.88,41.18h-9.95l4.08-18.42c.13-.67.33-1,.93-1s.74.33.87,1Zm16.09,20.23a3,3,0,0,1-.07-.33l-9.94-41.39c-1.54-6.41-6.41-7.41-11-7.41s-9.55,1-11.08,7.41l-9.95,41.39c0,.13-.06.26-.06.33a1,1,0,0,0,1.13,1.07h9.35a1.42,1.42,0,0,0,1.33-1.2l2.41-10.95h13.68l2.4,10.95a1.43,1.43,0,0,0,1.34,1.2h9.34A1,1,0,0,0,291.43,297.56Zm-48.06-.27v-47A1.23,1.23,0,0,0,242.1,249h-8.95a1.17,1.17,0,0,0-1.2,1.27v47a1.23,1.23,0,0,0,1.2,1.34h8.95A1.29,1.29,0,0,0,243.37,297.29ZM225.81,297v-6.21a1.34,1.34,0,0,0-1.34-1.33H213c-3.14,0-4.27-1.07-4.27-4.54V250.36a1.34,1.34,0,0,0-1.34-1.33h-8.74a1.34,1.34,0,0,0-1.34,1.33v34.52c0,12.15,7.68,14.35,16.29,14.35a68.58,68.58,0,0,0,10.88-.87C225.41,298.16,225.81,297.83,225.81,297Zm-37.85.33v-47a1.22,1.22,0,0,0-1.27-1.27h-8.94a1.18,1.18,0,0,0-1.21,1.27v47a1.24,1.24,0,0,0,1.21,1.34h8.94A1.28,1.28,0,0,0,188,297.29ZM157.72,284c0,3.74-2.2,5.87-9.08,5.87-.93,0-4.41-.06-5.47-.06V277.33h7.47c5.34,0,7.08,2.74,7.08,5.94Zm-.27-19.89c0,2.87-1.53,5.27-6.81,5.27h-7.47V257.84c.93-.07,4-.07,5.07-.07,6.88,0,9.21,1.67,9.21,5.34Zm11.35,20.16v-1a10.66,10.66,0,0,0-5.94-9.88c3.54-1.73,5.61-5.47,5.61-9.81v-1.2c0-10.61-8.48-13.95-21.1-13.95a104.33,104.33,0,0,0-12,.73c-2.6.4-3.53,1.34-3.53,4.34v40.59c0,3,1,3.87,3.67,4.34a84.19,84.19,0,0,0,12.21.8C159.32,299.23,168.8,296,168.8,284.28Zm-56.61-6.48c0,8-2.67,11.42-8.28,11.42s-8.21-3.41-8.21-11.42v-7.94c0-8,2.61-11.42,8.21-11.42s8.28,3.41,8.28,11.42Zm11.48,0v-7.94c0-15.49-8.74-21.43-19.76-21.43s-19.75,5.94-19.75,21.43v7.94c0,15.49,8.74,21.43,19.75,21.43S123.67,293.29,123.67,277.8ZM75.94,297.69V251.37a2.26,2.26,0,0,0-2.4-2.34H67.27a3.12,3.12,0,0,0-2.94,1.8l-10.21,19c-.27.53-.47.86-.74.86s-.47-.33-.73-.86l-10.22-19A3.11,3.11,0,0,0,39.5,249H33.22a2.21,2.21,0,0,0-2.4,2.27v46.39c0,.74.6.94,1.13.94h8.81a1.21,1.21,0,0,0,1.07-1.34V269.46c0-.47.2-.54.34-.54s.33.14.53.47l6,11a2.13,2.13,0,0,0,2,1.14h5.34a2.12,2.12,0,0,0,2-1.14l6-11c.2-.33.34-.47.54-.47s.33.07.33.54v27.83A1.22,1.22,0,0,0,66,298.63h8.81C75.34,298.63,75.94,298.43,75.94,297.69Zm-54.47-.4v-47A1.22,1.22,0,0,0,20.2,249H11.26a1.17,1.17,0,0,0-1.2,1.27v47a1.23,1.23,0,0,0,1.2,1.34H20.2A1.28,1.28,0,0,0,21.47,297.29Z"/></g></g></svg>